<?xml version="1.0" standalone="no"?>
<!DOCTYPE svg PUBLIC "-//W3C//DTD SVG 20010904//EN"
 "http://www.w3.org/TR/2001/REC-SVG-20010904/DTD/svg10.dtd">
<svg version="1.0" xmlns="http://www.w3.org/2000/svg"
 width="1600.000000pt" height="1600.000000pt" viewBox="0 0 1600.000000 1600.000000"
 preserveAspectRatio="xMidYMid meet">
<metadata>
Created by potrace 1.14, written by Peter Selinger 2001-2017
</metadata>
<g transform="translate(0.000000,1600.000000) scale(0.100000,-0.100000)"
fill="#000000" stroke="none">
<path d="M800 14801 l0 -201 63 -1 c66 -1 84 -3 162 -20 126 -28 271 -97 400
-191 66 -48 224 -219 283 -306 109 -159 219 -417 249 -582 2 -14 8 -43 13 -65
27 -124 30 -332 33 -1830 2 -858 6 -1571 9 -1585 4 -14 9 -59 12 -100 3 -41 8
-84 10 -95 2 -11 7 -49 11 -85 4 -36 8 -67 10 -70 2 -3 7 -33 10 -65 4 -33 9
-63 11 -66 2 -3 6 -21 9 -40 15 -93 39 -198 71 -315 20 -71 39 -145 44 -164 9
-40 95 -289 115 -335 7 -16 23 -57 36 -90 55 -144 197 -429 297 -595 48 -80
181 -282 191 -290 3 -3 22 -27 41 -55 19 -27 39 -55 45 -61 5 -6 21 -26 35
-44 43 -57 80 -102 158 -189 125 -139 335 -336 462 -434 30 -23 57 -44 60 -48
14 -15 209 -149 218 -149 6 0 12 -4 14 -8 8 -21 274 -168 428 -237 176 -80
455 -176 573 -199 12 -2 43 -9 69 -15 62 -14 276 -48 353 -56 114 -12 293 -15
898 -15 l608 0 -5 -1662 c-2 -915 -6 -1676 -9 -1693 -2 -16 -7 -59 -12 -95
-11 -99 -13 -109 -29 -195 -28 -144 -47 -212 -93 -345 -32 -92 -134 -306 -152
-320 -3 -3 -24 -31 -46 -64 -39 -58 -181 -206 -197 -206 -4 0 -8 -7 -8 -15 0
-8 -4 -14 -8 -12 -5 1 -32 -13 -61 -32 -156 -100 -343 -158 -518 -160 l-63 -1
0 -200 0 -200 2400 0 2400 0 0 200 0 200 -57 1 c-107 1 -201 18 -315 58 -294
103 -531 360 -668 725 -53 141 -76 227 -110 406 -19 106 -24 143 -39 305 -5
50 -9 813 -10 1698 l-1 1607 652 1 c359 0 689 3 733 5 76 4 285 28 331 38 12
2 39 7 60 11 111 17 389 94 494 136 25 9 77 30 115 44 39 15 81 33 95 40 14 7
60 29 102 49 92 41 260 137 377 214 77 51 280 198 291 211 3 3 34 31 70 61 99
83 215 196 355 344 38 40 171 201 196 236 13 19 28 38 32 41 10 7 6 2 148 215
345 517 576 1113 684 1764 17 107 28 185 51 390 4 30 8 519 10 1085 6 1681 10
2229 17 2255 3 14 8 43 12 65 3 22 7 47 10 55 2 8 6 26 9 40 21 112 100 333
154 430 101 182 228 339 357 440 22 17 49 38 60 48 34 28 153 90 233 121 93
37 210 61 292 61 l60 0 0 201 0 200 -642 -4 c-354 -2 -661 -7 -683 -11 -22 -4
-69 -14 -105 -23 -36 -8 -72 -16 -80 -18 -69 -14 -235 -81 -345 -138 -46 -23
-227 -141 -247 -159 -7 -7 -31 -26 -53 -43 -52 -38 -262 -248 -300 -300 -17
-22 -35 -44 -41 -50 -54 -50 -224 -326 -314 -510 -89 -181 -137 -305 -223
-580 -30 -97 -80 -307 -101 -425 -2 -14 -7 -41 -10 -60 -4 -19 -8 -48 -10 -65
-17 -133 -27 -217 -32 -260 -5 -47 -9 -355 -18 -1720 -2 -313 -6 -581 -9 -595
-3 -14 -8 -56 -11 -93 -7 -76 -12 -114 -28 -202 -5 -33 -11 -69 -13 -80 -7
-56 -17 -110 -20 -116 -2 -3 -7 -21 -10 -40 -3 -19 -11 -52 -17 -74 -5 -22
-12 -51 -14 -65 -3 -14 -9 -36 -14 -50 -5 -14 -12 -36 -14 -50 -6 -33 -85
-266 -121 -355 -205 -514 -541 -964 -910 -1216 -27 -19 -52 -36 -55 -39 -22
-22 -271 -143 -360 -175 -41 -15 -127 -38 -190 -52 -112 -25 -127 -26 -563
-30 l-448 -5 4 2854 c2 1569 6 2871 9 2893 3 22 8 63 12 90 25 203 43 284 110
510 2 6 6 17 9 25 3 8 13 38 23 65 22 61 113 240 145 286 55 78 142 180 191
224 176 158 412 252 641 254 l57 1 0 200 0 200 -2400 0 -2400 0 0 -200 0 -200
59 0 c126 0 336 -54 431 -110 8 -5 44 -26 79 -47 82 -49 225 -188 293 -283 87
-124 181 -326 227 -490 12 -41 26 -91 31 -110 12 -43 46 -244 55 -325 4 -33
11 -96 15 -140 4 -44 8 -1344 9 -2888 l1 -2808 -412 2 c-285 1 -441 6 -503 15
-195 29 -371 90 -560 194 -189 104 -438 320 -598 520 -81 100 -183 249 -261
383 -40 69 -116 225 -163 337 -8 19 -19 43 -24 53 -28 51 -132 373 -154 477
-2 8 -15 62 -29 120 -13 58 -32 156 -41 218 -9 62 -18 122 -20 133 -2 11 -7
52 -10 91 -4 39 -9 85 -12 102 -3 17 -7 276 -9 576 -2 300 -6 806 -8 1125 -3
319 -7 602 -10 629 -2 27 -7 77 -11 110 -5 55 -23 188 -30 226 -1 8 -6 35 -10
60 -4 25 -9 54 -11 65 -2 11 -7 34 -10 50 -27 153 -114 439 -180 593 -133 311
-259 538 -409 737 -108 144 -336 377 -424 433 -31 20 -36 24 -77 57 -18 14
-34 25 -37 25 -3 0 -25 13 -49 29 -41 27 -159 86 -260 130 -62 27 -201 67
-303 88 -67 13 -186 17 -727 20 l-648 4 0 -200z"/>
</g>
</svg>
